<mxfile host="app.diagrams.net" modified="2023-09-27T03:04:14.846Z" agent="Mozilla/5.0 (Macintosh; Intel Mac OS X 10.15; rv:109.0) Gecko/20100101 Firefox/117.0" etag="GeUK0YUDAKj0AjS4yo7U" version="21.8.2" type="github">
  <diagram name="第 1 页" id="kRyivgs33bhgMT-SAI9X">
    <mxGraphModel dx="1938" dy="572" grid="1" gridSize="10" guides="1" tooltips="1" connect="1" arrows="1" fold="1" page="1" pageScale="1" pageWidth="827" pageHeight="1169" math="0" shadow="0">
      <root>
        <mxCell id="0" />
        <mxCell id="1" parent="0" />
        <mxCell id="NqFIoYFfF4iX73pVKWfv-30" value="" style="rounded=0;whiteSpace=wrap;html=1;fillColor=#FFF2CC;" parent="1" vertex="1">
          <mxGeometry x="-115" y="70" width="720" height="320" as="geometry" />
        </mxCell>
        <mxCell id="NqFIoYFfF4iX73pVKWfv-3" value="&lt;font style=&quot;font-size: 14px;&quot;&gt;应用&lt;/font&gt;" style="swimlane;whiteSpace=wrap;html=1;startSize=40;shadow=0;fillColor=#CCE5FF;" parent="1" vertex="1">
          <mxGeometry x="-70" y="140" width="130" height="220" as="geometry" />
        </mxCell>
        <mxCell id="NqFIoYFfF4iX73pVKWfv-4" value="菜单1（api group）" style="rounded=0;whiteSpace=wrap;html=1;shadow=0;" parent="NqFIoYFfF4iX73pVKWfv-3" vertex="1">
          <mxGeometry y="40" width="130" height="60" as="geometry" />
        </mxCell>
        <mxCell id="NqFIoYFfF4iX73pVKWfv-5" value="菜单2（api group）" style="rounded=0;whiteSpace=wrap;html=1;shadow=0;" parent="NqFIoYFfF4iX73pVKWfv-3" vertex="1">
          <mxGeometry y="100" width="130" height="60" as="geometry" />
        </mxCell>
        <mxCell id="NqFIoYFfF4iX73pVKWfv-6" value="菜单3（api group）" style="rounded=0;whiteSpace=wrap;html=1;shadow=0;" parent="NqFIoYFfF4iX73pVKWfv-3" vertex="1">
          <mxGeometry y="160" width="130" height="60" as="geometry" />
        </mxCell>
        <mxCell id="NqFIoYFfF4iX73pVKWfv-7" value="" style="shape=flexArrow;endArrow=classic;html=1;rounded=0;shadow=0;" parent="1" edge="1">
          <mxGeometry width="50" height="50" relative="1" as="geometry">
            <mxPoint x="160" y="240" as="sourcePoint" />
            <mxPoint x="80" y="240" as="targetPoint" />
          </mxGeometry>
        </mxCell>
        <mxCell id="NqFIoYFfF4iX73pVKWfv-8" value="&lt;font style=&quot;font-size: 14px;&quot;&gt;角色&lt;/font&gt;" style="swimlane;whiteSpace=wrap;html=1;startSize=40;shadow=0;fillColor=#CCE5FF;" parent="1" vertex="1">
          <mxGeometry x="180" y="140" width="130" height="220" as="geometry" />
        </mxCell>
        <mxCell id="NqFIoYFfF4iX73pVKWfv-9" value="管理员" style="rounded=0;whiteSpace=wrap;html=1;shadow=0;" parent="NqFIoYFfF4iX73pVKWfv-8" vertex="1">
          <mxGeometry y="40" width="130" height="60" as="geometry" />
        </mxCell>
        <mxCell id="NqFIoYFfF4iX73pVKWfv-10" value="访客" style="rounded=0;whiteSpace=wrap;html=1;shadow=0;" parent="NqFIoYFfF4iX73pVKWfv-8" vertex="1">
          <mxGeometry y="100" width="130" height="60" as="geometry" />
        </mxCell>
        <mxCell id="NqFIoYFfF4iX73pVKWfv-11" value="自定义角色" style="rounded=0;whiteSpace=wrap;html=1;shadow=0;" parent="NqFIoYFfF4iX73pVKWfv-8" vertex="1">
          <mxGeometry y="160" width="130" height="60" as="geometry" />
        </mxCell>
        <mxCell id="NqFIoYFfF4iX73pVKWfv-12" value="&lt;font style=&quot;font-size: 14px;&quot;&gt;用户&lt;/font&gt;" style="swimlane;whiteSpace=wrap;html=1;startSize=40;shadow=0;fillColor=#CCE5FF;" parent="1" vertex="1">
          <mxGeometry x="440" y="140" width="130" height="220" as="geometry" />
        </mxCell>
        <mxCell id="NqFIoYFfF4iX73pVKWfv-13" value="user" style="rounded=0;whiteSpace=wrap;html=1;shadow=0;" parent="NqFIoYFfF4iX73pVKWfv-12" vertex="1">
          <mxGeometry y="40" width="130" height="60" as="geometry" />
        </mxCell>
        <mxCell id="NqFIoYFfF4iX73pVKWfv-14" value="aksk（客户端调用）" style="rounded=0;whiteSpace=wrap;html=1;shadow=0;" parent="NqFIoYFfF4iX73pVKWfv-12" vertex="1">
          <mxGeometry y="100" width="130" height="60" as="geometry" />
        </mxCell>
        <mxCell id="NqFIoYFfF4iX73pVKWfv-22" value="管理" style="text;html=1;align=center;verticalAlign=middle;resizable=0;points=[];autosize=1;strokeColor=none;fillColor=none;shadow=0;" parent="1" vertex="1">
          <mxGeometry x="100" y="210" width="50" height="30" as="geometry" />
        </mxCell>
        <mxCell id="NqFIoYFfF4iX73pVKWfv-24" value="" style="shape=flexArrow;endArrow=classic;html=1;rounded=0;shadow=0;" parent="1" edge="1">
          <mxGeometry width="50" height="50" relative="1" as="geometry">
            <mxPoint x="420" y="240" as="sourcePoint" />
            <mxPoint x="340" y="240" as="targetPoint" />
          </mxGeometry>
        </mxCell>
        <mxCell id="NqFIoYFfF4iX73pVKWfv-25" value="分配" style="text;html=1;align=center;verticalAlign=middle;resizable=0;points=[];autosize=1;strokeColor=none;fillColor=none;shadow=0;" parent="1" vertex="1">
          <mxGeometry x="360" y="210" width="50" height="30" as="geometry" />
        </mxCell>
        <mxCell id="NqFIoYFfF4iX73pVKWfv-27" value="&lt;font style=&quot;font-size: 18px;&quot;&gt;Athena平台RBAC权限管理&lt;/font&gt;" style="text;html=1;strokeColor=none;fillColor=none;align=center;verticalAlign=middle;whiteSpace=wrap;rounded=0;" parent="1" vertex="1">
          <mxGeometry x="135" y="80" width="225" height="30" as="geometry" />
        </mxCell>
        <mxCell id="NqFIoYFfF4iX73pVKWfv-31" value="" style="rounded=0;whiteSpace=wrap;html=1;shadow=0;" parent="1" vertex="1">
          <mxGeometry x="440" y="300" width="130" height="60" as="geometry" />
        </mxCell>
        <mxCell id="NqFIoYFfF4iX73pVKWfv-33" value="&lt;font style=&quot;font-size: 14px;&quot;&gt;user&lt;/font&gt;" style="rounded=1;whiteSpace=wrap;html=1;" parent="1" vertex="1">
          <mxGeometry x="-115" y="540" width="120" height="60" as="geometry" />
        </mxCell>
        <mxCell id="NqFIoYFfF4iX73pVKWfv-35" value="" style="endArrow=classic;html=1;rounded=0;entryX=0.02;entryY=0.367;entryDx=0;entryDy=0;entryPerimeter=0;" parent="1" target="NqFIoYFfF4iX73pVKWfv-41" edge="1">
          <mxGeometry width="50" height="50" relative="1" as="geometry">
            <mxPoint x="5" y="562" as="sourcePoint" />
            <mxPoint x="135" y="562" as="targetPoint" />
          </mxGeometry>
        </mxCell>
        <mxCell id="NqFIoYFfF4iX73pVKWfv-36" value="登录request + token" style="text;html=1;align=center;verticalAlign=middle;resizable=0;points=[];autosize=1;strokeColor=none;fillColor=none;" parent="1" vertex="1">
          <mxGeometry x="5" y="530" width="130" height="30" as="geometry" />
        </mxCell>
        <mxCell id="NqFIoYFfF4iX73pVKWfv-41" value="&lt;div&gt;&lt;font style=&quot;font-size: 14px;&quot;&gt;apisix&lt;br&gt;&lt;/font&gt;&lt;/div&gt;&lt;div&gt;&lt;font style=&quot;font-size: 14px;&quot;&gt;(athena-auth插件)&lt;br&gt;&lt;/font&gt;&lt;/div&gt;" style="rounded=1;whiteSpace=wrap;html=1;" parent="1" vertex="1">
          <mxGeometry x="135" y="540" width="150" height="60" as="geometry" />
        </mxCell>
        <mxCell id="NqFIoYFfF4iX73pVKWfv-46" value="&lt;font style=&quot;font-size: 14px;&quot;&gt;server&lt;/font&gt;" style="rounded=1;whiteSpace=wrap;html=1;" parent="1" vertex="1">
          <mxGeometry x="375" y="540" width="120" height="60" as="geometry" />
        </mxCell>
        <mxCell id="NqFIoYFfF4iX73pVKWfv-47" value="" style="endArrow=classic;html=1;rounded=0;exitX=0;exitY=0.75;exitDx=0;exitDy=0;" parent="1" edge="1">
          <mxGeometry width="50" height="50" relative="1" as="geometry">
            <mxPoint x="135" y="580" as="sourcePoint" />
            <mxPoint x="5" y="580" as="targetPoint" />
          </mxGeometry>
        </mxCell>
        <mxCell id="NqFIoYFfF4iX73pVKWfv-48" value="forbidden" style="text;html=1;align=center;verticalAlign=middle;resizable=0;points=[];autosize=1;strokeColor=none;fillColor=none;" parent="1" vertex="1">
          <mxGeometry x="30" y="578" width="70" height="30" as="geometry" />
        </mxCell>
        <mxCell id="NqFIoYFfF4iX73pVKWfv-49" value="" style="endArrow=classic;html=1;rounded=0;" parent="1" edge="1">
          <mxGeometry width="50" height="50" relative="1" as="geometry">
            <mxPoint x="285" y="569.5" as="sourcePoint" />
            <mxPoint x="375" y="570" as="targetPoint" />
          </mxGeometry>
        </mxCell>
        <mxCell id="NqFIoYFfF4iX73pVKWfv-50" value="request" style="text;html=1;align=center;verticalAlign=middle;resizable=0;points=[];autosize=1;strokeColor=none;fillColor=none;" parent="1" vertex="1">
          <mxGeometry x="305" y="538" width="60" height="30" as="geometry" />
        </mxCell>
        <mxCell id="NqFIoYFfF4iX73pVKWfv-51" value="legal" style="text;html=1;align=center;verticalAlign=middle;resizable=0;points=[];autosize=1;strokeColor=none;fillColor=none;" parent="1" vertex="1">
          <mxGeometry x="310" y="570" width="50" height="30" as="geometry" />
        </mxCell>
        <mxCell id="NqFIoYFfF4iX73pVKWfv-52" value="客户端" style="rounded=1;whiteSpace=wrap;html=1;" parent="1" vertex="1">
          <mxGeometry x="-115" y="870" width="120" height="60" as="geometry" />
        </mxCell>
        <mxCell id="NqFIoYFfF4iX73pVKWfv-53" value="" style="endArrow=classic;html=1;rounded=0;entryX=0.02;entryY=0.367;entryDx=0;entryDy=0;entryPerimeter=0;" parent="1" target="NqFIoYFfF4iX73pVKWfv-55" edge="1">
          <mxGeometry width="50" height="50" relative="1" as="geometry">
            <mxPoint x="5" y="892" as="sourcePoint" />
            <mxPoint x="135" y="892" as="targetPoint" />
          </mxGeometry>
        </mxCell>
        <mxCell id="NqFIoYFfF4iX73pVKWfv-54" value="调用request + sign" style="text;html=1;align=center;verticalAlign=middle;resizable=0;points=[];autosize=1;strokeColor=none;fillColor=none;" parent="1" vertex="1">
          <mxGeometry x="10" y="860" width="120" height="30" as="geometry" />
        </mxCell>
        <mxCell id="NqFIoYFfF4iX73pVKWfv-55" value="&lt;div&gt;&lt;font style=&quot;font-size: 14px;&quot;&gt;apisix&lt;br&gt;&lt;/font&gt;&lt;/div&gt;&lt;div&gt;&lt;font style=&quot;font-size: 14px;&quot;&gt;(sign-auth插件)&lt;br&gt;&lt;/font&gt;&lt;/div&gt;" style="rounded=1;whiteSpace=wrap;html=1;" parent="1" vertex="1">
          <mxGeometry x="135" y="870" width="150" height="60" as="geometry" />
        </mxCell>
        <mxCell id="NqFIoYFfF4iX73pVKWfv-56" value="&lt;font style=&quot;font-size: 14px;&quot;&gt;server&lt;/font&gt;" style="rounded=1;whiteSpace=wrap;html=1;" parent="1" vertex="1">
          <mxGeometry x="375" y="870" width="120" height="60" as="geometry" />
        </mxCell>
        <mxCell id="NqFIoYFfF4iX73pVKWfv-57" value="" style="endArrow=classic;html=1;rounded=0;exitX=0;exitY=0.75;exitDx=0;exitDy=0;" parent="1" edge="1">
          <mxGeometry width="50" height="50" relative="1" as="geometry">
            <mxPoint x="135" y="910" as="sourcePoint" />
            <mxPoint x="5" y="910" as="targetPoint" />
          </mxGeometry>
        </mxCell>
        <mxCell id="NqFIoYFfF4iX73pVKWfv-58" value="forbidden" style="text;html=1;align=center;verticalAlign=middle;resizable=0;points=[];autosize=1;strokeColor=none;fillColor=none;" parent="1" vertex="1">
          <mxGeometry x="30" y="908" width="70" height="30" as="geometry" />
        </mxCell>
        <mxCell id="NqFIoYFfF4iX73pVKWfv-59" value="" style="endArrow=classic;html=1;rounded=0;" parent="1" edge="1">
          <mxGeometry width="50" height="50" relative="1" as="geometry">
            <mxPoint x="285" y="899.5" as="sourcePoint" />
            <mxPoint x="375" y="900" as="targetPoint" />
          </mxGeometry>
        </mxCell>
        <mxCell id="NqFIoYFfF4iX73pVKWfv-60" value="request" style="text;html=1;align=center;verticalAlign=middle;resizable=0;points=[];autosize=1;strokeColor=none;fillColor=none;" parent="1" vertex="1">
          <mxGeometry x="305" y="868" width="60" height="30" as="geometry" />
        </mxCell>
        <mxCell id="NqFIoYFfF4iX73pVKWfv-61" value="legal" style="text;html=1;align=center;verticalAlign=middle;resizable=0;points=[];autosize=1;strokeColor=none;fillColor=none;" parent="1" vertex="1">
          <mxGeometry x="310" y="900" width="50" height="30" as="geometry" />
        </mxCell>
        <mxCell id="NqFIoYFfF4iX73pVKWfv-65" value="" style="endArrow=classic;html=1;rounded=0;entryX=0.5;entryY=1;entryDx=0;entryDy=0;" parent="1" target="NqFIoYFfF4iX73pVKWfv-41" edge="1">
          <mxGeometry width="50" height="50" relative="1" as="geometry">
            <mxPoint x="-60" y="600" as="sourcePoint" />
            <mxPoint x="250" y="670" as="targetPoint" />
            <Array as="points">
              <mxPoint x="-60" y="670" />
              <mxPoint x="210" y="670" />
            </Array>
          </mxGeometry>
        </mxCell>
        <mxCell id="NqFIoYFfF4iX73pVKWfv-66" value="请求token" style="text;html=1;align=center;verticalAlign=middle;resizable=0;points=[];autosize=1;strokeColor=none;fillColor=none;" parent="1" vertex="1">
          <mxGeometry x="35" y="640" width="80" height="30" as="geometry" />
        </mxCell>
        <mxCell id="NqFIoYFfF4iX73pVKWfv-68" value="" style="endArrow=classic;html=1;rounded=0;" parent="1" edge="1">
          <mxGeometry width="50" height="50" relative="1" as="geometry">
            <mxPoint x="-55.5" y="930" as="sourcePoint" />
            <mxPoint x="-55.5" y="1010" as="targetPoint" />
          </mxGeometry>
        </mxCell>
        <mxCell id="NqFIoYFfF4iX73pVKWfv-69" value="通过ak/sk生成签名sign" style="ellipse;whiteSpace=wrap;html=1;" parent="1" vertex="1">
          <mxGeometry x="-128.75" y="1010" width="147.5" height="90" as="geometry" />
        </mxCell>
        <mxCell id="NqFIoYFfF4iX73pVKWfv-70" value="预处理" style="text;html=1;align=center;verticalAlign=middle;resizable=0;points=[];autosize=1;strokeColor=none;fillColor=none;" parent="1" vertex="1">
          <mxGeometry x="-60" y="958" width="60" height="30" as="geometry" />
        </mxCell>
      </root>
    </mxGraphModel>
  </diagram>
</mxfile>
